#tb 0: 1/48000
#media_type 0: audio
#codec_id 0: pcm_s24le
#sample_rate 0: 48000
#channel_layout_name 0: 5.1(side)
0,          0,          0,     1024,    18432, 0x00000000
0,       1024,       1024,     1024,    18432, 0x5ca6ebf7
0,       2048,       2048,     1024,    18432, 0xb5520ea3
